<svg width="82" height="82" viewBox="0 0 82 82" fill="none" xmlns="http://www.w3.org/2000/svg">
<g style="mix-blend-mode:multiply">
<path fill-rule="evenodd" clip-rule="evenodd" d="M41 82C63.6437 82 82 63.6437 82 41C82 18.3563 63.6437 0 41 0C18.3563 0 0 18.3563 0 41C0 63.6437 18.3563 82 41 82Z" fill="#F9DAE8"/>
</g>
<path d="M41 32.8181C35.5455 32.8181 30.8873 36.2108 29 40.9999C30.8873 45.789 35.5455 49.1818 41 49.1818C46.4545 49.1818 51.1127 45.789 53 40.9999C51.1127 36.2108 46.4545 32.8181 41 32.8181ZM41 46.4545C37.9891 46.4545 35.5455 44.0108 35.5455 40.9999C35.5455 37.989 37.9891 35.5454 41 35.5454C44.0109 35.5454 46.4545 37.989 46.4545 40.9999C46.4545 44.0108 44.0109 46.4545 41 46.4545ZM41 37.7272C39.1891 37.7272 37.7273 39.189 37.7273 40.9999C37.7273 42.8108 39.1891 44.2727 41 44.2727C42.8109 44.2727 44.2727 42.8108 44.2727 40.9999C44.2727 39.189 42.8109 37.7272 41 37.7272Z" fill="#CC5590"/>
</svg>
